<svg enable-background="new 0 0 64 64" viewBox="0 0 64 64" xmlns="http://www.w3.org/2000/svg"><circle cx="9.531" cy="20.508" fill="#f9a287" r="6.333"/><path d="m4.417 21.758c0-3.498 2.836-6.333 6.333-6.333 1.462 0 2.804.5 3.875 1.332-1.153-1.563-3.003-2.582-5.094-2.582-3.498 0-6.333 2.836-6.333 6.333 0 2.036.965 3.843 2.458 5.002-.775-1.051-1.239-2.346-1.239-3.752z" fill="#fcb7a4"/><path d="m9.532 27.342c-3.768 0-6.833-3.065-6.833-6.834 0-3.768 3.065-6.833 6.833-6.833s6.833 3.065 6.833 6.833-3.066 6.834-6.833 6.834zm0-12.667c-3.217 0-5.833 2.616-5.833 5.833s2.617 5.834 5.833 5.834 5.833-2.617 5.833-5.834-2.617-5.833-5.833-5.833z" fill="#63312d"/><path d="m12.484 14.175h-2.952c3.498 0 6.333 2.836 6.333 6.333s-2.836 6.333-6.333 6.333h2.952c3.498 0 6.333-2.836 6.333-6.333s-2.836-6.333-6.333-6.333z" fill="#db785a"/><path d="m12.483 27.342h-2.951c-.276 0-.5-.224-.5-.5s.224-.5.5-.5c3.216 0 5.833-2.617 5.833-5.834s-2.617-5.833-5.833-5.833c-.276 0-.5-.224-.5-.5s.224-.5.5-.5h2.952c3.768 0 6.833 3.065 6.833 6.833s-3.066 6.834-6.834 6.834zm.665-12.629c1.93 1.208 3.216 3.354 3.216 5.795s-1.287 4.587-3.217 5.796c2.905-.331 5.169-2.804 5.169-5.796.001-2.991-2.263-5.464-5.168-5.795z" fill="#63312d"/><circle cx="9.531" cy="43.492" fill="#f9a287" r="6.333"/><path d="m4.417 44.742c0-3.498 2.836-6.333 6.333-6.333 1.462 0 2.804.5 3.875 1.332-1.153-1.563-3.003-2.582-5.094-2.582-3.498 0-6.333 2.836-6.333 6.333 0 2.036.965 3.843 2.458 5.002-.775-1.051-1.239-2.346-1.239-3.752z" fill="#fcb7a4"/><path d="m9.532 50.325c-3.768 0-6.833-3.065-6.833-6.833 0-3.769 3.065-6.834 6.833-6.834s6.833 3.065 6.833 6.834c0 3.768-3.066 6.833-6.833 6.833zm0-12.667c-3.217 0-5.833 2.617-5.833 5.834s2.617 5.833 5.833 5.833 5.833-2.616 5.833-5.833-2.617-5.834-5.833-5.834z" fill="#63312d"/><path d="m12.484 37.159h-2.952c3.498 0 6.333 2.836 6.333 6.333s-2.836 6.333-6.333 6.333h2.952c3.498 0 6.333-2.836 6.333-6.333s-2.836-6.333-6.333-6.333z" fill="#db785a"/><path d="m12.483 50.325h-2.951c-.276 0-.5-.224-.5-.5s.224-.5.5-.5c3.216 0 5.833-2.616 5.833-5.833s-2.617-5.834-5.833-5.834c-.276 0-.5-.224-.5-.5s.224-.5.5-.5h2.952c3.768 0 6.833 3.065 6.833 6.834 0 3.768-3.066 6.833-6.834 6.833zm.665-12.629c1.93 1.209 3.217 3.354 3.217 5.796 0 2.44-1.286 4.587-3.216 5.795 2.905-.331 5.168-2.804 5.168-5.795 0-2.992-2.264-5.465-5.169-5.796z" fill="#63312d"/><circle cx="51.516" cy="32" fill="#84dbff" r="6.333"/><path d="m46.402 33.25c0-3.498 2.836-6.333 6.333-6.333 1.462 0 2.804.5 3.875 1.332-1.153-1.563-3.003-2.582-5.094-2.582-3.498 0-6.333 2.836-6.333 6.333 0 2.036.965 3.843 2.458 5.002-.775-1.051-1.239-2.346-1.239-3.752z" fill="#a9ebff"/><path d="m51.516 38.833c-3.768 0-6.833-3.065-6.833-6.833s3.065-6.833 6.833-6.833 6.833 3.065 6.833 6.833-3.065 6.833-6.833 6.833zm0-12.666c-3.216 0-5.833 2.616-5.833 5.833s2.617 5.833 5.833 5.833c3.217 0 5.833-2.616 5.833-5.833s-2.616-5.833-5.833-5.833z" fill="#63312d"/><path d="m54.468 25.667h-2.952c3.498 0 6.333 2.836 6.333 6.333s-2.836 6.333-6.333 6.333h2.952c3.498 0 6.333-2.836 6.333-6.333s-2.835-6.333-6.333-6.333z" fill="#52badb"/><path d="m54.468 38.833h-2.952c-.276 0-.5-.224-.5-.5s.224-.5.5-.5c3.217 0 5.833-2.616 5.833-5.833s-2.617-5.833-5.833-5.833c-.276 0-.5-.224-.5-.5s.224-.5.5-.5h2.952c3.768 0 6.833 3.065 6.833 6.833s-3.065 6.833-6.833 6.833zm.665-12.628c1.93 1.208 3.217 3.355 3.217 5.795s-1.286 4.587-3.217 5.795c2.905-.33 5.169-2.804 5.169-5.795s-2.264-5.465-5.169-5.795z" fill="#63312d"/><circle cx="29.954" cy="32" fill="#f9dd9d" r="6.333"/><path d="m24.84 33.25c0-3.498 2.836-6.333 6.333-6.333 1.462 0 2.804.5 3.875 1.332-1.153-1.563-3.003-2.582-5.094-2.582-3.498 0-6.333 2.836-6.333 6.333 0 2.036.965 3.843 2.458 5.002-.775-1.051-1.239-2.346-1.239-3.752z" fill="#ffe8bb"/><path d="m29.954 38.833c-3.768 0-6.833-3.065-6.833-6.833s3.065-6.833 6.833-6.833 6.833 3.065 6.833 6.833-3.065 6.833-6.833 6.833zm0-12.666c-3.216 0-5.833 2.616-5.833 5.833s2.617 5.833 5.833 5.833c3.217 0 5.833-2.616 5.833-5.833s-2.616-5.833-5.833-5.833z" fill="#63312d"/><path d="m32.906 25.667h-2.952c3.498 0 6.333 2.836 6.333 6.333s-2.836 6.333-6.333 6.333h2.952c3.498 0 6.333-2.836 6.333-6.333s-2.835-6.333-6.333-6.333z" fill="#efc36a"/><path d="m32.906 38.833h-2.952c-.276 0-.5-.224-.5-.5s.224-.5.5-.5c3.217 0 5.833-2.616 5.833-5.833s-2.617-5.833-5.833-5.833c-.276 0-.5-.224-.5-.5s.224-.5.5-.5h2.952c3.768 0 6.833 3.065 6.833 6.833s-3.065 6.833-6.833 6.833zm.665-12.628c1.931 1.208 3.217 3.354 3.217 5.795s-1.286 4.587-3.217 5.795c2.905-.33 5.169-2.804 5.169-5.795s-2.264-5.465-5.169-5.795z" fill="#63312d"/><circle cx="29.954" cy="9.417" fill="#f9dd9d" r="6.333"/><path d="m24.84 10.667c0-3.498 2.836-6.333 6.333-6.333 1.462 0 2.804.5 3.875 1.332-1.153-1.563-3.003-2.582-5.094-2.582-3.498 0-6.333 2.836-6.333 6.333 0 2.036.965 3.843 2.458 5.002-.775-1.052-1.239-2.346-1.239-3.752z" fill="#ffe8bb"/><path d="m29.954 16.25c-3.768 0-6.833-3.065-6.833-6.833 0-3.769 3.065-6.834 6.833-6.834s6.833 3.065 6.833 6.834c.001 3.768-3.065 6.833-6.833 6.833zm0-12.667c-3.216 0-5.833 2.617-5.833 5.834s2.617 5.833 5.833 5.833c3.217 0 5.833-2.616 5.833-5.833s-2.616-5.834-5.833-5.834z" fill="#63312d"/><path d="m32.906 3.083h-2.952c3.498 0 6.333 2.836 6.333 6.333s-2.836 6.333-6.333 6.333h2.952c3.498 0 6.333-2.836 6.333-6.333s-2.835-6.333-6.333-6.333z" fill="#efc36a"/><path d="m32.906 16.25h-2.952c-.276 0-.5-.224-.5-.5s.224-.5.5-.5c3.217 0 5.833-2.616 5.833-5.833s-2.617-5.834-5.833-5.834c-.276 0-.5-.224-.5-.5s.224-.5.5-.5h2.952c3.768 0 6.833 3.065 6.833 6.834.001 3.768-3.065 6.833-6.833 6.833zm.665-12.629c1.931 1.209 3.217 3.354 3.217 5.796 0 2.44-1.286 4.587-3.217 5.795 2.905-.33 5.169-2.804 5.169-5.795 0-2.992-2.264-5.466-5.169-5.796z" fill="#63312d"/><circle cx="29.954" cy="54.583" fill="#f9dd9d" r="6.333"/><path d="m24.84 55.833c0-3.498 2.836-6.333 6.333-6.333 1.462 0 2.804.5 3.875 1.332-1.153-1.563-3.003-2.582-5.094-2.582-3.498 0-6.333 2.836-6.333 6.333 0 2.036.965 3.843 2.458 5.002-.775-1.051-1.239-2.346-1.239-3.752z" fill="#ffe8bb"/><path d="m29.954 61.417c-3.768 0-6.833-3.065-6.833-6.834 0-3.768 3.065-6.833 6.833-6.833s6.833 3.065 6.833 6.833c.001 3.769-3.065 6.834-6.833 6.834zm0-12.667c-3.216 0-5.833 2.616-5.833 5.833s2.617 5.834 5.833 5.834c3.217 0 5.833-2.617 5.833-5.834s-2.616-5.833-5.833-5.833z" fill="#63312d"/><path d="m32.906 48.25h-2.952c3.498 0 6.333 2.836 6.333 6.333s-2.836 6.333-6.333 6.333h2.952c3.498 0 6.333-2.836 6.333-6.333s-2.835-6.333-6.333-6.333z" fill="#efc36a"/><g fill="#63312d"><path d="m32.906 61.417h-2.952c-.276 0-.5-.224-.5-.5s.224-.5.5-.5c3.217 0 5.833-2.617 5.833-5.834s-2.617-5.833-5.833-5.833c-.276 0-.5-.224-.5-.5s.224-.5.5-.5h2.952c3.768 0 6.833 3.065 6.833 6.833.001 3.769-3.065 6.834-6.833 6.834zm.665-12.629c1.931 1.208 3.217 3.354 3.217 5.795s-1.286 4.587-3.217 5.796c2.905-.33 5.169-2.804 5.169-5.796 0-2.991-2.264-5.465-5.169-5.795z"/><path d="m19.692 19.732h1.001v10.764h-1.001z" transform="matrix(.5436 -.8393 .8393 .5436 -11.8639 28.4096)"/><path d="m14.81 38.385h10.764v1.001h-10.764z" transform="matrix(.8393 -.5436 .5436 .8393 -17.8947 17.2244)"/><path d="m20.231 22.662h1v27.848h-1z" transform="matrix(.9059 -.4235 .4235 .9059 -13.544 12.2234)"/><path d="m6.807 26.913h27.848v1h-27.848z" transform="matrix(.4236 -.9058 .9058 .4236 -12.8834 34.5793)"/><path d="m13.923 13.562h10.738v1h-10.738z" transform="matrix(.8689 -.495 .495 .8689 -4.4314 11.3926)"/><path d="m18.792 44.569h1v10.738h-1z" transform="matrix(.4948 -.869 .869 .4948 -33.6501 41.9923)"/><path d="m36.288 31.5h8.932v1h-8.932z"/><path d="m41.861 8.099h1.001v20.051h-1.001z" transform="matrix(.7906 -.6123 .6123 .7906 -2.2276 29.7353)"/><path d="m32.336 45.375h20.051v1.001h-20.051z" transform="matrix(.6127 -.7903 .7903 .6127 -19.8495 51.2449)"/></g></svg>